<svg width="49" height="48" viewBox="0 0 49 48" fill="none" xmlns="http://www.w3.org/2000/svg">
<path d="M43.926 19.964C42.032 10.714 33.792 4 24.334 4C13.306 4 4.33398 12.972 4.33398 24C4.33398 33.458 11.048 41.698 20.298 43.592C20.622 43.6608 20.9582 43.6471 21.2755 43.552C21.5928 43.4569 21.8811 43.2836 22.114 43.048L43.38 21.782C43.856 21.306 44.06 20.626 43.926 19.964ZM22.334 36C22.3248 32.8127 23.2761 29.6966 25.064 27.058C25.6401 26.2077 26.295 25.4135 27.02 24.686C27.7466 23.9622 28.5394 23.308 29.388 22.732C30.2457 22.1546 31.1564 21.6604 32.108 21.256C33.07 20.85 34.08 20.536 35.11 20.324C36.5381 20.0403 37.9978 19.9502 39.45 20.056L22.392 37.114C22.366 36.744 22.334 36.374 22.334 36ZM8.33398 24C8.33398 15.178 15.512 8 24.334 8C30.152 8 35.39 11.178 38.192 16.01C36.8868 16.0148 35.5853 16.1474 34.306 16.406C33.02 16.67 31.758 17.062 30.548 17.572C29.3592 18.0778 28.2213 18.6959 27.15 19.418C26.084 20.14 25.09 20.96 24.192 21.858C23.294 22.756 22.476 23.748 21.75 24.818C21.032 25.884 20.41 27.026 19.906 28.214C18.8674 30.6783 18.3329 33.3257 18.334 36C18.334 36.982 18.43 37.958 18.572 38.922C12.512 36.576 8.33398 30.672 8.33398 24Z" fill="black"/>
</svg>
